<?xml version="1.0" encoding="UTF-8"?>
<svg id="Ebene_1" xmlns="http://www.w3.org/2000/svg" version="1.1" viewBox="0 0 400 150">
  <!-- Generator: Adobe Illustrator 29.6.0, SVG Export Plug-In . SVG Version: 2.1.1 Build 207)  -->
  <defs>
    <style>
      .st0 {
        fill: #1d1d1b;
      }

      .st1 {
        fill: #cf0;
      }
    </style>
  </defs>
  <g id="CD_Raster">
    <rect class="st1" y="62.5" width="125" height="87.5"/>
    <rect class="st1" x="125" y="12.5" width="75" height="137.5"/>
    <rect class="st1" x="325" y="25" width="75" height="125"/>
    <rect class="st1" y="50" width="75" height="100"/>
    <rect class="st1" x="200" y="112.5" width="125" height="37.5"/>
  </g>
  <g id="Logo_3-zeilig">
    <g>
      <g>
        <polygon class="st0" points="43.2 25 102.3 25 102.3 38.7 61.4 38.7 61.4 70.4 43.2 70.4 43.2 25"/>
        <polygon class="st0" points="61.4 70.4 97.7 70.4 97.7 84.1 61.4 84.1 61.4 70.4"/>
        <polygon class="st0" points="25 88.6 43.2 88.6 43.2 125 25 125 25 88.6"/>
      </g>
      <g>
        <g>
          <path class="st0" d="M299.8,59.7c1.4,0,2.4-1,2.4-2.4s-1-2.4-2.4-2.4-2.4,1-2.4,2.4,1,2.4,2.4,2.4Z"/>
          <path class="st0" d="M292,59.7c1.4,0,2.4-1,2.4-2.4s-1-2.4-2.4-2.4-2.4,1-2.4,2.4,1,2.4,2.4,2.4Z"/>
        </g>
        <g>
          <path class="st0" d="M125,73.6v-12.2h5.1v12.7c0,4.4,1.4,6,3.9,6s4-1.5,4-6v-12.7h4.9v12.2c0,7.6-3.1,10.9-9,10.9s-9.1-3.3-9.1-10.9h0Z"/>
          <path class="st0" d="M147.8,61.4h5.3l5.9,11.3,2.2,5h.1c-.2-2.4-.7-5.6-.7-8.3v-8h4.9v22.7h-5.3l-5.9-11.3-2.2-5h-.1c.2,2.5.7,5.6.7,8.2v8.1h-4.9s0-22.7,0-22.7Z"/>
          <path class="st0" d="M170.7,61.4h5.1v22.7h-5.1v-22.7Z"/>
          <path class="st0" d="M178.5,61.4h5.4l2.7,10.6c.7,2.5,1.1,4.8,1.8,7.3h.1c.7-2.5,1.2-4.8,1.8-7.3l2.7-10.6h5.2l-6.9,22.7h-6.2l-6.9-22.7h0Z"/>
          <path class="st0" d="M200.9,61.4h14.2v4.3h-9.1v4.6h7.8v4.3h-7.8v5.2h9.4v4.3h-14.6v-22.7h0Z"/>
          <path class="st0" d="M238,84.1l-5.1-9.1c2.4-1.1,4.1-3.2,4.1-6.6,0-5.4-3.9-7.1-8.8-7.1h-8.2v22.7h5.1v-8.2h2.8l4.3,8.2h5.8,0ZM225.1,65.5h2.6c2.7,0,4.1.8,4.1,3s-1.4,3.4-4.1,3.4h-2.6v-6.4Z"/>
          <path class="st0" d="M239.5,81.3l2.9-3.5c1.6,1.4,3.7,2.4,5.6,2.4s3.2-.8,3.2-2.2-1.3-1.9-3.3-2.7l-2.9-1.3c-2.4-1-4.6-2.9-4.6-6.2s3.4-6.8,8.1-6.8,5.4,1,7.3,3l-2.6,3.2c-1.5-1.2-2.9-1.8-4.7-1.8s-2.9.7-2.9,2,1.5,1.9,3.5,2.7l2.9,1.2c2.8,1.1,4.5,3,4.5,6.2s-3.1,7-8.6,7-6.1-1.1-8.4-3.3h0Z"/>
          <path class="st0" d="M260.5,61.4h5.1v22.7h-5.1v-22.7Z"/>
          <path class="st0" d="M275.4,65.7h-6.3v-4.3h17.6v4.3h-6.3v18.4h-5.1v-18.4h0Z"/>
          <path class="st0" d="M300.8,84.1h5.4l-7.1-22.7h-6.1l-7.1,22.7h5.2l1.4-5.4h6.9l1.4,5.4h0ZM293.5,74.7l.5-2.1c.6-2.3,1.2-4.9,1.8-7.3h.1c.6,2.4,1.2,5.1,1.9,7.3l.5,2.1h-4.9Z"/>
          <path class="st0" d="M311.2,65.7h-6.3v-4.3h17.6v4.3h-6.3v18.4h-5.1v-18.4h0Z"/>
        </g>
      </g>
      <g>
        <path class="st0" d="M125,25h14.3v4.3h-9.2v5.3h7.9v4.3h-7.9v8.8h-5.1v-22.7h0Z"/>
        <path class="st0" d="M161.5,47.7l-5.1-9.1c2.4-1.1,4.1-3.2,4.1-6.6,0-5.4-3.9-7.1-8.8-7.1h-8.2v22.7h5.1v-8.2h2.8l4.3,8.2h5.8,0ZM148.6,29.1h2.6c2.7,0,4.1.8,4.1,3s-1.4,3.4-4.1,3.4h-2.6v-6.4Z"/>
        <path class="st0" d="M165,25h14.2v4.3h-9.1v4.6h7.8v4.3h-7.8v5.2h9.4v4.3h-14.6v-22.7Z"/>
        <path class="st0" d="M184.3,25h5.1v22.7h-5.1v-22.7Z"/>
        <path class="st0" d="M194.6,25h14.2v4.3h-9.1v4.6h7.8v4.3h-7.8v5.2h9.4v4.3h-14.6v-22.7Z"/>
      </g>
      <g>
        <path class="st0" d="M125,102.3h6.5c4.6,0,7.7,1.6,7.7,5.6s-1.2,4.2-3.4,4.9h0c2.8.7,4.7,2.5,4.7,5.6,0,4.4-3.4,6.6-8.5,6.6h-7v-22.7h0ZM131,112.1c4.2,0,5.9-1.5,5.9-4s-2-3.9-5.8-3.9h-3.7v7.9h3.6ZM131.6,123.1c4.1,0,6.6-1.5,6.6-4.8s-2.4-4.4-6.6-4.4h-4.2v9.2h4.2Z"/>
        <path class="st0" d="M145.4,102.3h12.8v2h-10.5v7.7h8.8v2h-8.8v9h10.8v2h-13.2v-22.7h0Z"/>
        <path class="st0" d="M178.8,125l-6-10.2c3.3-.7,5.4-2.8,5.4-6.3s-3.2-6.2-7.8-6.2h-6.9v22.7h2.4v-9.9h4.4l5.7,9.9h2.7ZM165.9,104.2h4.1c3.7,0,5.8,1.1,5.8,4.3s-2.1,4.6-5.8,4.6h-4.1v-8.9Z"/>
        <path class="st0" d="M183.1,102.3h2.4v20.7h10.1v2h-12.5v-22.7h0Z"/>
        <path class="st0" d="M199.8,102.3h2.4v22.7h-2.4v-22.7Z"/>
        <path class="st0" d="M208.7,102.3h2.5l8.8,15,2.5,4.6h.1c-.1-2.3-.3-4.7-.3-7v-12.6h2.2v22.7h-2.5l-8.8-15-2.5-4.6h-.1c.1,2.2.3,4.5.3,6.8v12.8h-2.2v-22.7h0Z"/>
      </g>
    </g>
  </g>
</svg>