<?xml version="1.0" encoding="UTF-8" standalone="no"?>
<svg
   id="Ebene_1"
   viewBox="0 0 344.33583 187.13435"
   version="1.1"
   sodipodi:docname="BWM-farbig-typo-schwarz.svg"
   width="344.33582"
   height="187.13434"
   inkscape:version="1.4.2 (ebf0e940d0, 2025-05-08)"
   xmlns:inkscape="http://www.inkscape.org/namespaces/inkscape"
   xmlns:sodipodi="http://sodipodi.sourceforge.net/DTD/sodipodi-0.dtd"
   xmlns:xlink="http://www.w3.org/1999/xlink"
   xmlns="http://www.w3.org/2000/svg"
   xmlns:svg="http://www.w3.org/2000/svg">
  <sodipodi:namedview
     id="namedview25"
     pagecolor="#ffffff"
     bordercolor="#000000"
     borderopacity="0.25"
     inkscape:showpageshadow="2"
     inkscape:pageopacity="0.0"
     inkscape:pagecheckerboard="0"
     inkscape:deskcolor="#d1d1d1"
     inkscape:zoom="1.0086762"
     inkscape:cx="191.33991"
     inkscape:cy="151.18827"
     inkscape:window-width="1268"
     inkscape:window-height="728"
     inkscape:window-x="0"
     inkscape:window-y="37"
     inkscape:window-maximized="1"
     inkscape:current-layer="Ebene_1" />
  <defs
     id="defs2">
    <style
       id="style1">.cls-1{fill:url(#Neues_Verlaufsfeld_1-3);}.cls-2{fill:url(#Neues_Verlaufsfeld_1-7);}.cls-3{fill:url(#Neues_Verlaufsfeld_1-6);}.cls-4{fill:url(#Neues_Verlaufsfeld_1-5);}.cls-5{fill:url(#Neues_Verlaufsfeld_1-4);}.cls-6{fill:url(#Neues_Verlaufsfeld_1);}.cls-7{fill:url(#Neues_Verlaufsfeld_1-2);}.cls-8{fill:#1d1d1b;}</style>
    <linearGradient
       id="Neues_Verlaufsfeld_1"
       x1="170.05"
       y1="72.150002"
       x2="318.89001"
       y2="239.28"
       gradientUnits="userSpaceOnUse">
      <stop
         offset="0"
         stop-color="#e94e1b"
         id="stop1" />
      <stop
         offset="1"
         stop-color="#f39200"
         id="stop2" />
    </linearGradient>
    <linearGradient
       id="Neues_Verlaufsfeld_1-2"
       x1="186.66"
       y1="57.360001"
       x2="335.48999"
       y2="224.5"
       xlink:href="#Neues_Verlaufsfeld_1"
       gradientTransform="translate(-67.415096,-47.587127)" />
    <linearGradient
       id="Neues_Verlaufsfeld_1-3"
       x1="219.17"
       y1="28.41"
       x2="368"
       y2="195.55"
       xlink:href="#Neues_Verlaufsfeld_1"
       gradientTransform="translate(-67.415096,-47.587127)" />
    <linearGradient
       id="Neues_Verlaufsfeld_1-4"
       x1="183.56"
       y1="60.119999"
       x2="332.39001"
       y2="227.25999"
       xlink:href="#Neues_Verlaufsfeld_1"
       gradientTransform="translate(-67.415096,-47.587127)" />
    <linearGradient
       id="Neues_Verlaufsfeld_1-5"
       x1="162.24001"
       y1="79.099998"
       x2="311.07999"
       y2="246.24001"
       xlink:href="#Neues_Verlaufsfeld_1"
       gradientTransform="translate(-67.415096,-47.587127)" />
    <linearGradient
       id="Neues_Verlaufsfeld_1-6"
       x1="241.49001"
       y1="8.5299997"
       x2="390.32999"
       y2="175.67"
       xlink:href="#Neues_Verlaufsfeld_1"
       gradientTransform="translate(-67.415096,-47.587127)" />
    <linearGradient
       id="Neues_Verlaufsfeld_1-7"
       x1="209.22"
       y1="37.27"
       x2="358.06"
       y2="204.39999"
       xlink:href="#Neues_Verlaufsfeld_1"
       gradientTransform="translate(-67.415096,-47.587127)" />
    <linearGradient
       inkscape:collect="always"
       xlink:href="#Neues_Verlaufsfeld_1"
       id="linearGradient25"
       gradientUnits="userSpaceOnUse"
       x1="170.05"
       y1="72.150002"
       x2="318.89001"
       y2="239.28"
       gradientTransform="translate(-67.415096,-47.587127)" />
  </defs>
  <rect
     class="cls-8"
     x="269.7149"
     y="59.642876"
     width="6.1599998"
     height="26.639999"
     id="rect2" />
  <path
     class="cls-8"
     d="m 16.844904,71.162873 c 1.58,0 2.65,0.77 3.2,2.3 h 6.55 c -0.53,-2.4 -1.64,-4.26 -3.33,-5.58 -1.69,-1.32 -3.8,-1.98 -6.32,-1.98 -1.97,0 -3.71,0.42 -5.24,1.26 -1.52,0.84 -2.7100004,2.04 -3.5600004,3.6 -0.85,1.56 -1.28,3.38 -1.28,5.47 0,2.09 0.43,3.91 1.28,5.47 0.85,1.56 2.0400004,2.76 3.5600004,3.6 1.52,0.84 3.27,1.26 5.24,1.26 2.5,0 4.6,-0.67 6.3,-2.02 1.7,-1.34 2.82,-3.19 3.35,-5.54 h -6.55 c -0.55,1.54 -1.62,2.3 -3.2,2.3 -1.13,0 -2.03,-0.44 -2.7,-1.31 -0.67,-0.87 -1.01,-2.13 -1.01,-3.76 0,-1.63 0.34,-2.89 1.01,-3.76 0.67,-0.88 1.57,-1.31 2.7,-1.31 z"
     id="path2" />
  <path
     class="cls-8"
     d="m 44.414904,67.172873 c -1.58,-0.84 -3.36,-1.26 -5.33,-1.26 -1.97,0 -3.74,0.42 -5.33,1.26 -1.58,0.84 -2.83,2.05 -3.74,3.62 -0.91,1.57 -1.37,3.39 -1.37,5.45 0,2.06 0.45,3.91 1.35,5.47 0.9,1.56 2.14,2.76 3.71,3.6 1.57,0.84 3.34,1.26 5.31,1.26 1.97,0 3.75,-0.42 5.35,-1.26 1.6,-0.84 2.86,-2.04 3.78,-3.62 0.92,-1.57 1.39,-3.39 1.39,-5.45 0,-2.06 -0.46,-3.88 -1.37,-5.45 -0.91,-1.57 -2.16,-2.78 -3.74,-3.62 z m -2.39,12.78 c -0.83,0.86 -1.83,1.3 -3.01,1.3 -1.18,0 -2.15,-0.43 -2.93,-1.3 -0.78,-0.86 -1.17,-2.1 -1.17,-3.71 0,-1.61 0.4,-2.87 1.19,-3.73 0.79,-0.85 1.79,-1.28 2.99,-1.28 1.2,0 2.17,0.43 2.97,1.3 0.8,0.86 1.21,2.1 1.21,3.71 0,1.61 -0.41,2.84 -1.24,3.71 z"
     id="path3" />
  <path
     class="cls-8"
     d="m 78.434904,65.982873 c -1.42,0 -2.72,0.35 -3.92,1.04 -1.2,0.7 -2.15,1.6 -2.84,2.7 -0.67,-1.2 -1.6,-2.12 -2.79,-2.77 -1.19,-0.65 -2.54,-0.97 -4.05,-0.97 -1.27,0 -2.41,0.25 -3.42,0.74 -1.01,0.49 -1.82,1.16 -2.45,2 v -2.52 h -6.16 v 20.09 h 6.16 v -10.91 c 0,-1.3 0.34,-2.3 1.03,-3.01 0.69,-0.71 1.63,-1.06 2.83,-1.06 1.2,0 2.14,0.35 2.83,1.06 0.69,0.71 1.03,1.71 1.03,3.01 v 10.91 h 6.12 v -10.91 c 0,-1.3 0.34,-2.3 1.03,-3.01 0.68,-0.71 1.63,-1.06 2.83,-1.06 1.2,0 2.14,0.35 2.83,1.06 0.69,0.71 1.03,1.71 1.03,3.01 v 10.91 h 6.12 v -11.74 c 0,-2.69 -0.74,-4.79 -2.21,-6.3 -1.48,-1.51 -3.46,-2.27 -5.96,-2.27 z"
     id="path4" />
  <path
     class="cls-8"
     d="m 110.9649,81.662873 c 0.78,-1.57 1.17,-3.39 1.17,-5.45 0,-2.06 -0.39,-3.88 -1.17,-5.44 -0.78,-1.56 -1.84,-2.76 -3.19,-3.6 -1.34,-0.84 -2.84,-1.26 -4.5,-1.26 -1.39,0 -2.63,0.29 -3.709996,0.86 -1.08,0.58 -1.91,1.33 -2.48,2.27 v -9.4 h -6.16 v 26.64 h 6.16 v -2.81 c 0.6,0.94 1.43,1.69 2.48,2.25 1.059996,0.56 2.289996,0.85 3.709996,0.85 1.66,0 3.16,-0.43 4.5,-1.28 1.34,-0.85 2.41,-2.06 3.19,-3.64 z m -6.39,-1.8 c -0.86,0.9 -1.91,1.35 -3.13,1.35 -1.22,0 -2.259996,-0.44 -3.109996,-1.33 -0.85,-0.89 -1.28,-2.1 -1.28,-3.64 0,-1.54 0.43,-2.75 1.28,-3.64 0.85,-0.89 1.889996,-1.33 3.109996,-1.33 1.22,0 2.3,0.44 3.15,1.31 0.85,0.88 1.28,2.08 1.28,3.62 0,1.54 -0.43,2.75 -1.3,3.65 z"
     id="path5" />
  <rect
     class="cls-8"
     x="115.37489"
     y="66.202873"
     width="6.1599998"
     height="20.09"
     id="rect5" />
  <path
     class="cls-8"
     d="m 145.9749,86.282873 v -11.74 c 0,-2.66 -0.7,-4.76 -2.11,-6.28 -1.4,-1.52 -3.28,-2.29 -5.63,-2.29 -1.32,0 -2.51,0.26 -3.56,0.77 -1.06,0.52 -1.9,1.22 -2.52,2.11 v -2.66 h -6.16 v 20.09 h 6.16 v -10.91 c 0,-1.34 0.35,-2.39 1.04,-3.13 0.7,-0.74 1.63,-1.12 2.81,-1.12 1.18,0 2.11,0.37 2.81,1.12 0.7,0.74 1.04,1.79 1.04,3.13 v 10.91 z"
     id="path6" />
  <path
     class="cls-8"
     d="m 154.3849,67.172873 c -1.34,0.84 -2.41,2.04 -3.19,3.6 -0.78,1.56 -1.17,3.37 -1.17,5.44 0,2.07 0.39,3.88 1.17,5.45 0.78,1.57 1.84,2.78 3.19,3.64 1.34,0.85 2.83,1.28 4.46,1.28 1.42,0 2.66,-0.29 3.73,-0.86 1.07,-0.58 1.9,-1.33 2.5,-2.27 v 2.84 h 6.16 v -20.09 h -6.16 v 2.84 c -0.58,-0.94 -1.4,-1.69 -2.47,-2.27 -1.07,-0.58 -2.31,-0.86 -3.73,-0.86 -1.66,0 -3.16,0.42 -4.5,1.26 z m 9.41,5.44 c 0.85,0.89 1.28,2.1 1.28,3.64 0,1.54 -0.43,2.75 -1.28,3.64 -0.85,0.89 -1.89,1.33 -3.11,1.33 -1.22,0 -2.26,-0.45 -3.11,-1.35 -0.85,-0.9 -1.28,-2.12 -1.28,-3.65 0,-1.53 0.43,-2.74 1.28,-3.62 0.85,-0.88 1.89,-1.31 3.11,-1.31 1.22,0 2.26,0.45 3.11,1.33 z"
     id="path7" />
  <path
     class="cls-8"
     d="m 177.6749,61.302873 v 4.9 h -2.45 v 5.11 h 2.45 v 7.99 c 0,2.47 0.62,4.25 1.87,5.35 1.25,1.09 2.99,1.64 5.22,1.64 h 3.13 v -5.22 h -2.2 c -0.67,0 -1.15,-0.13 -1.44,-0.4 -0.29,-0.26 -0.43,-0.7 -0.43,-1.3 v -8.06 h 4.03 v -5.11 h -4.03 v -4.9 h -6.16 z"
     id="path8" />
  <path
     class="cls-8"
     d="m 206.8049,85.312873 c 1.6,-0.84 2.86,-2.04 3.78,-3.62 0.92,-1.57 1.39,-3.39 1.39,-5.45 0,-2.06 -0.46,-3.88 -1.37,-5.45 -0.91,-1.57 -2.16,-2.78 -3.74,-3.62 -1.58,-0.84 -3.36,-1.26 -5.33,-1.26 -1.97,0 -3.74,0.42 -5.33,1.26 -1.58,0.84 -2.83,2.05 -3.74,3.62 -0.91,1.57 -1.37,3.39 -1.37,5.45 0,2.06 0.45,3.91 1.35,5.47 0.9,1.56 2.14,2.76 3.71,3.6 1.57,0.84 3.34,1.26 5.31,1.26 1.97,0 3.75,-0.42 5.35,-1.26 z m -9.45,-9.07 c 0,-1.63 0.4,-2.87 1.19,-3.73 0.79,-0.85 1.79,-1.28 2.99,-1.28 1.2,0 2.17,0.43 2.97,1.3 0.8,0.86 1.21,2.1 1.21,3.71 0,1.61 -0.41,2.84 -1.24,3.71 -0.83,0.86 -1.83,1.3 -3.01,1.3 -1.18,0 -2.15,-0.43 -2.93,-1.3 -0.78,-0.86 -1.17,-2.1 -1.17,-3.71 z"
     id="path9" />
  <path
     class="cls-8"
     d="m 216.2449,66.202873 v 20.09 h 6.16 v -9.32 c 0,-1.66 0.38,-2.81 1.15,-3.47 0.77,-0.66 1.92,-0.99 3.46,-0.99 h 1.69 v -6.52 c -1.32,0 -2.52,0.32 -3.6,0.95 -1.08,0.64 -1.98,1.51 -2.7,2.61 v -3.35 z"
     id="path10" />
  <rect
     class="cls-8"
     x="232.65491"
     y="66.202873"
     width="6.1599998"
     height="20.09"
     id="rect10" />
  <path
     class="cls-8"
     d="m 264.2549,66.202873 h -6.16 v 2.84 c -0.58,-0.94 -1.4,-1.69 -2.47,-2.27 -1.07,-0.58 -2.31,-0.86 -3.73,-0.86 -1.66,0 -3.16,0.42 -4.5,1.26 -1.34,0.84 -2.41,2.04 -3.19,3.6 -0.78,1.56 -1.17,3.37 -1.17,5.44 0,2.07 0.39,3.88 1.17,5.45 0.78,1.57 1.84,2.78 3.19,3.64 1.34,0.85 2.83,1.28 4.46,1.28 1.42,0 2.66,-0.29 3.73,-0.86 1.07,-0.58 1.9,-1.33 2.5,-2.27 v 2.84 h 6.16 v -20.09 z m -7.43,13.68 c -0.85,0.89 -1.89,1.33 -3.11,1.33 -1.22,0 -2.26,-0.45 -3.11,-1.35 -0.85,-0.9 -1.28,-2.12 -1.28,-3.65 0,-1.53 0.43,-2.74 1.28,-3.62 0.85,-0.88 1.89,-1.31 3.11,-1.31 1.22,0 2.26,0.45 3.11,1.33 0.85,0.89 1.28,2.1 1.28,3.64 0,1.54 -0.43,2.75 -1.28,3.64 z"
     id="path11" />
  <path
     class="cls-8"
     d="m 158.6549,120.13287 c 1.37,0.6 2.93,0.9 4.68,0.9 1.63,0 3.07,-0.26 4.3,-0.79 1.24,-0.53 2.18,-1.25 2.84,-2.18 0.66,-0.93 0.99,-1.97 0.99,-3.15 -0.02,-1.39 -0.39,-2.5 -1.1,-3.33 -0.71,-0.83 -1.53,-1.43 -2.47,-1.8 -0.94,-0.37 -2.15,-0.75 -3.64,-1.13 -1.3,-0.29 -2.25,-0.58 -2.86,-0.86 -0.61,-0.28 -0.92,-0.72 -0.92,-1.3 0,-0.48 0.19,-0.86 0.58,-1.13 0.38,-0.28 0.94,-0.41 1.66,-0.41 0.84,0 1.52,0.2 2.03,0.61 0.52,0.41 0.82,0.96 0.92,1.66 h 5.69 c -0.22,-2.06 -1.05,-3.72 -2.5,-4.97 -1.45,-1.25 -3.44,-1.87 -5.96,-1.87 -1.7,0 -3.17,0.28 -4.41,0.83 -1.24,0.55 -2.17,1.3 -2.81,2.25 -0.64,0.95 -0.95,2 -0.95,3.15 0,1.37 0.35,2.46 1.04,3.26 0.7,0.8 1.52,1.39 2.48,1.76 0.96,0.37 2.16,0.73 3.6,1.06 1.34,0.34 2.32,0.64 2.92,0.92 0.6,0.28 0.9,0.7 0.9,1.28 0,0.48 -0.21,0.87 -0.63,1.17 -0.42,0.3 -1.01,0.45 -1.78,0.45 -0.84,0 -1.55,-0.22 -2.12,-0.65 -0.58,-0.43 -0.9,-1 -0.97,-1.69 h -6.08 c 0.1,1.3 0.54,2.47 1.33,3.51 0.79,1.04 1.87,1.87 3.24,2.47 z"
     id="path12" />
  <polygon
     class="cls-8"
     points="247.27,148.24 240.39,148.24 247.57,167.65 241.49,177.69 248.78,177.8 265.68,148.24 258.52,148.24 251.48,160.74 "
     id="polygon12"
     transform="translate(-67.415096,-47.587127)" />
  <path
     class="cls-8"
     d="m 244.1949,110.37287 c 0,-2.02 -0.43,-3.78 -1.28,-5.29 -0.85,-1.51 -2.03,-2.68 -3.55,-3.49 -1.51,-0.82 -3.24,-1.22 -5.18,-1.22 -1.94,0 -3.76,0.42 -5.29,1.26 -1.54,0.84 -2.73,2.04 -3.58,3.6 -0.85,1.56 -1.28,3.38 -1.28,5.47 0,2.09 0.43,3.91 1.3,5.47 0.86,1.56 2.06,2.76 3.6,3.6 1.54,0.84 3.29,1.26 5.26,1.26 1.63,0 3.11,-0.3 4.43,-0.9 1.32,-0.6 2.42,-1.43 3.29,-2.48 0.87,-1.05 1.48,-2.24 1.82,-3.56 h -6.55 c -0.6,1.3 -1.67,1.94 -3.2,1.94 -1.03,0 -1.9,-0.33 -2.61,-0.99 -0.71,-0.66 -1.11,-1.61 -1.21,-2.86 h 13.93 c 0.07,-0.62 0.11,-1.22 0.11,-1.8 z m -14,-1.62 c 0.17,-1.1 0.61,-1.96 1.31,-2.56 0.71,-0.6 1.58,-0.9 2.61,-0.9 1.03,0 1.98,0.31 2.7,0.94 0.72,0.62 1.08,1.46 1.08,2.52 z"
     id="path13" />
  <path
     class="cls-8"
     d="m 278.6649,103.50287 c -0.58,-0.94 -1.4,-1.69 -2.47,-2.27 -1.07,-0.58 -2.31,-0.86 -3.73,-0.86 -1.66,0 -3.16,0.42 -4.5,1.26 -1.34,0.84 -2.41,2.04 -3.19,3.6 -0.78,1.56 -1.17,3.37 -1.17,5.44 0,2.07 0.39,3.88 1.17,5.45 0.78,1.57 1.84,2.78 3.19,3.64 1.34,0.85 2.84,1.28 4.5,1.28 1.42,0 2.65,-0.29 3.71,-0.88 1.06,-0.59 1.88,-1.35 2.48,-2.29 v 2.84 c 0,1.61 -0.38,2.78 -1.13,3.51 -0.75,0.73 -1.77,1.1 -3.04,1.1 -1.06,0 -1.94,-0.22 -2.66,-0.67 -0.72,-0.44 -1.18,-1.05 -1.37,-1.82 h -6.08 c 0.26,2.4 1.32,4.3 3.17,5.71 1.85,1.4 4.26,2.11 7.24,2.11 2.23,0 4.1,-0.44 5.6,-1.33 1.5,-0.89 2.62,-2.08 3.35,-3.58 0.73,-1.5 1.1,-3.17 1.1,-5.02 v -20.05 h -6.16 v 2.84 z m -1.28,10.84 c -0.85,0.89 -1.89,1.33 -3.11,1.33 -1.22,0 -2.26,-0.45 -3.11,-1.35 -0.85,-0.9 -1.28,-2.12 -1.28,-3.65 0,-1.53 0.43,-2.74 1.28,-3.62 0.85,-0.88 1.89,-1.31 3.11,-1.31 1.22,0 2.26,0.44 3.11,1.33 0.85,0.89 1.28,2.1 1.28,3.64 0,1.54 -0.43,2.75 -1.28,3.64 z"
     id="path14" />
  <rect
     class="cls-8"
     x="289.28491"
     y="100.65288"
     width="6.1599998"
     height="20.09"
     id="rect14" />
  <path
     class="cls-8"
     d="m 315.0249,101.59287 c -1.51,-0.82 -3.24,-1.22 -5.18,-1.22 -1.94,0 -3.76,0.42 -5.29,1.26 -1.54,0.84 -2.73,2.04 -3.58,3.6 -0.85,1.56 -1.28,3.38 -1.28,5.47 0,2.09 0.43,3.91 1.3,5.47 0.86,1.56 2.06,2.76 3.6,3.6 1.54,0.84 3.29,1.26 5.26,1.26 1.63,0 3.11,-0.3 4.43,-0.9 1.32,-0.6 2.42,-1.43 3.29,-2.48 0.87,-1.05 1.48,-2.24 1.82,-3.56 h -6.55 c -0.6,1.3 -1.67,1.94 -3.2,1.94 -1.03,0 -1.9,-0.33 -2.61,-0.99 -0.71,-0.66 -1.11,-1.61 -1.21,-2.86 h 13.93 c 0.07,-0.62 0.11,-1.22 0.11,-1.8 0,-2.02 -0.43,-3.78 -1.28,-5.29 -0.85,-1.51 -2.03,-2.68 -3.55,-3.49 z m -9.18,7.16 c 0.17,-1.1 0.61,-1.96 1.31,-2.56 0.71,-0.6 1.58,-0.9 2.61,-0.9 1.03,0 1.98,0.31 2.7,0.94 0.72,0.62 1.08,1.46 1.08,2.52 z"
     id="path15" />
  <path
     class="cls-8"
     d="m 339.2949,111.58287 c -0.71,-0.83 -1.53,-1.43 -2.47,-1.8 -0.94,-0.37 -2.15,-0.75 -3.64,-1.13 -1.3,-0.29 -2.25,-0.58 -2.86,-0.86 -0.61,-0.29 -0.92,-0.72 -0.92,-1.3 0,-0.48 0.19,-0.86 0.58,-1.13 0.38,-0.28 0.94,-0.41 1.66,-0.41 0.84,0 1.52,0.2 2.03,0.61 0.52,0.41 0.82,0.96 0.92,1.66 h 5.69 c -0.22,-2.06 -1.05,-3.72 -2.5,-4.97 -1.45,-1.25 -3.44,-1.87 -5.96,-1.87 -1.7,0 -3.17,0.28 -4.41,0.83 -1.24,0.55 -2.17,1.3 -2.81,2.25 -0.64,0.95 -0.95,2 -0.95,3.15 0,1.37 0.35,2.46 1.04,3.26 0.69,0.8 1.52,1.39 2.48,1.76 0.96,0.37 2.16,0.73 3.6,1.06 1.34,0.34 2.32,0.64 2.92,0.92 0.6,0.28 0.9,0.7 0.9,1.28 0,0.48 -0.21,0.87 -0.63,1.17 -0.42,0.3 -1.01,0.45 -1.78,0.45 -0.84,0 -1.55,-0.22 -2.12,-0.65 -0.58,-0.43 -0.9,-1 -0.97,-1.69 h -6.08 c 0.1,1.3 0.54,2.47 1.33,3.51 0.79,1.04 1.87,1.87 3.24,2.47 1.37,0.6 2.93,0.9 4.68,0.9 1.63,0 3.07,-0.26 4.3,-0.79 1.24,-0.53 2.18,-1.25 2.84,-2.18 0.66,-0.93 0.99,-1.97 0.99,-3.15 -0.02,-1.39 -0.39,-2.5 -1.1,-3.33 z"
     id="path16" />
  <path
     class="cls-8"
     d="m 206.1549,109.83287 c 0,-1.34 0.35,-2.39 1.04,-3.13 0.7,-0.74 1.63,-1.12 2.81,-1.12 1.18,0 2.11,0.37 2.81,1.12 0.7,0.74 1.04,1.79 1.04,3.13 v 10.91 h 6.12 v -11.74 c 0,-2.66 -0.7,-4.76 -2.11,-6.28 -1.41,-1.52 -3.28,-2.29 -5.63,-2.29 -1.32,0 -2.51,0.26 -3.56,0.77 -1.06,0.52 -1.9,1.22 -2.52,2.11 v -2.66 h -6.16 v 20.09 h 6.16 z"
     id="path17" />
  <path
     class="cls-8"
     d="m 248.4349,120.74287 h 6.16 v -9.32 c 0,-1.66 0.38,-2.81 1.15,-3.47 0.77,-0.66 1.92,-0.99 3.46,-0.99 h 1.69 v -6.52 c -1.32,0 -2.52,0.32 -3.6,0.95 -1.08,0.63 -1.98,1.51 -2.7,2.61 v -3.35 h -6.16 z"
     id="path18" />
  <path
     class="cls-6"
     d="m 161.4449,90.442873 c 0.51,2.71 0.49,3.23 1.46,6.58 0.21,0.75 0.91,1.27 1.68,1.27 0.16,0 0.32,-0.02 0.48,-0.07 0.45,-0.13 0.82,-0.42 1.05,-0.83 0.22,-0.41 0.28,-0.88 0.15,-1.33 -0.92,-3.21 -0.89,-3.66 -1.38,-6.26 -0.09,-0.46 -0.35,-0.86 -0.74,-1.12 -0.39,-0.26 -0.85,-0.36 -1.31,-0.27 -0.95,0.18 -1.57,1.1 -1.39,2.04 z"
     id="path19"
     style="fill:url(#linearGradient25)" />
  <path
     class="cls-7"
     d="m 161.3749,49.972873 c -0.96,0.03 -1.72,0.84 -1.69,1.8 0.13,4.09 0.14,6.85 0.21,11.07 0.02,0.95 0.8,1.72 1.75,1.72 h 0.03 c 0.96,-0.02 1.74,-0.81 1.72,-1.87 -0.06,-4.08 -0.08,-6.93 -0.2,-11.03 -0.03,-0.95 -0.78,-1.67 -1.81,-1.69 z"
     id="path20"
     style="fill:url(#Neues_Verlaufsfeld_1-2)" />
  <path
     class="cls-1"
     d="m 251.5549,97.962873 c 0.85,0 1.58,-0.61 1.72,-1.45 l 0.1,-0.56 c 0.32,-1.84 0.53,-3.06 0.76,-5.21 0.05,-0.46 -0.08,-0.92 -0.37,-1.29 -0.29,-0.36 -0.71,-0.59 -1.15,-0.64 -0.47,-0.06 -0.92,0.06 -1.28,0.34 -0.38,0.29 -0.62,0.73 -0.67,1.2 -0.23,2.07 -0.42,3.19 -0.75,5.07 l -0.09,0.49 c -0.16,0.95 0.48,1.86 1.45,2.02 0.1,0.01 0.19,0.02 0.28,0.02 z"
     id="path21"
     style="fill:url(#Neues_Verlaufsfeld_1-3)" />
  <path
     class="cls-5"
     d="m 213.2649,152.65287 c 0.31,0 0.62,-0.08 0.88,-0.24 14.43,-8.37 22.28,-15.8 28.98,-27.42 0.48,-0.84 0.19,-1.91 -0.65,-2.39 -0.83,-0.48 -1.91,-0.19 -2.39,0.65 -6.35,11.03 -13.85,18.11 -27.7,26.14 -0.41,0.23 -0.69,0.61 -0.82,1.06 -0.12,0.45 -0.06,0.93 0.18,1.33 0.31,0.54 0.89,0.87 1.52,0.87 z"
     id="path22"
     style="fill:url(#Neues_Verlaufsfeld_1-4)" />
  <path
     class="cls-4"
     d="m 269.0949,133.45287 c -0.83,-0.48 -1.91,-0.2 -2.39,0.63 l -21.45,36.75 c -1.97,-0.45 -4.03,0.16 -5.44,1.61 -26.23,-13.27 -39.75,-24.48 -54.22,-39.33 -0.33,-0.33 -0.76,-0.52 -1.25,-0.53 -0.48,0 -0.9,0.18 -1.23,0.5 -0.33,0.33 -0.52,0.76 -0.53,1.23 -0.01,0.47 0.17,0.91 0.5,1.24 14.42,14.8 27.9,26.03 53.46,39.15 h -76.77 c 16.09,-5 29.52,-9.67 41.89,-15.68 0.42,-0.2 0.74,-0.56 0.89,-1 0.15,-0.44 0.12,-0.92 -0.08,-1.34 -0.42,-0.87 -1.46,-1.23 -2.34,-0.81 -13.37,6.49 -28.04,11.44 -47.34,17.31 -1.38,-2.03 -3.91,-3.03 -6.36,-2.29 l -38.99,-78.089997 c -0.21,-0.42 -0.57,-0.73 -1.01,-0.88 -0.44,-0.15 -0.92,-0.12 -1.34,0.09 -0.42,0.21 -0.73,0.57 -0.88,1.01 -0.15,0.44 -0.12,0.92 0.09,1.34 l 39.2,78.509997 c -0.82,1.03 -1.27,2.28 -1.27,3.57 0,3.2 2.6,5.8 5.8,5.8 2.53,0 4.73,-1.65 5.49,-4.05 h 84.93 c 0.76,2.4 2.96,4.05 5.49,4.05 3.2,0 5.8,-2.6 5.8,-5.8 0,-1.42 -0.53,-2.76 -1.49,-3.83 l 21.47,-36.77 c 0.24,-0.4 0.3,-0.88 0.18,-1.33 -0.12,-0.45 -0.41,-0.83 -0.81,-1.07 z m -121.06,45.29 c -1.27,0 -2.3,-1.03 -2.3,-2.3 0,-1.27 1.03,-2.3 2.3,-2.3 1.27,0 2.3,1.03 2.3,2.3 0,1.27 -1.03,2.3 -2.3,2.3 z m 95.91,0 c -1.27,0 -2.3,-1.03 -2.3,-2.3 0,-1.27 1.03,-2.3 2.3,-2.3 1.27,0 2.3,1.03 2.3,2.3 0,1.27 -1.03,2.3 -2.3,2.3 z"
     id="path23"
     style="fill:url(#Neues_Verlaufsfeld_1-5)" />
  <path
     class="cls-3"
     d="m 295.7949,88.952873 c -1.34,-1.01 -3.01,-1.37 -4.64,-1.02 l -9.58,-16.77 c -0.23,-0.41 -0.61,-0.7 -1.06,-0.82 -0.45,-0.13 -0.92,-0.06 -1.32,0.17 -0.41,0.23 -0.7,0.61 -0.82,1.06 -0.12,0.45 -0.06,0.92 0.17,1.33 l 9.58,16.78 c -0.19,0.21 -0.37,0.42 -0.53,0.66 -1.89,-1.24 -3.9,-2.17 -6.62,-3.71 -0.4,-0.23 -0.91,-0.17 -1.34,0.02 -0.43,0.19 -0.76,0.53 -0.93,0.96 -0.36,0.9 0.13,1.82 0.98,2.27 2.69,1.42 4.7,2.56 6.85,3.79 0.04,3.16 2.62,5.72 5.8,5.72 3.18,0 5.8,-2.6 5.8,-5.8 0,-1.81 -0.87,-3.54 -2.32,-4.63 z m -3.47,6.93 c -1.27,0 -2.3,-1.03 -2.3,-2.3 0,-1.27 1.03,-2.3 2.3,-2.3 1.27,0 2.3,1.03 2.3,2.3 0,1.27 -1.03,2.3 -2.3,2.3 z"
     id="path24"
     style="fill:url(#Neues_Verlaufsfeld_1-6)" />
  <path
     class="cls-2"
     d="m 248.2549,12.822873 c 1.02,-1.08 1.58,-2.46 1.58,-3.9399999 0,-3.2 -2.6,-5.8 -5.8,-5.8 -2.53,0 -4.73,1.64 -5.49,4.05 h -85.04 c -0.76,-2.4 -2.96,-4.05 -5.49,-4.05 -3.2,0 -5.8,2.6 -5.8,5.8 0,1.1699999 0.37,2.3099999 1.08,3.2999999 l -24.35,41.2 c -0.15,-0.02 -0.29,-0.03 -0.44,-0.03 -3.2,0 -5.8,2.6 -5.8,5.8 0,3.2 2.6,5.8 5.8,5.8 3.2,0 5.8,-2.6 5.8,-5.8 0,-0.13 0,-0.26 -0.02,-0.39 44.88,-19.04 78.17,-14 105.71,-0.51 -0.05,0.29 -0.08,0.59 -0.08,0.9 0,3.2 2.6,5.8 5.8,5.8 3.2,0 5.8,-2.6 5.8,-5.8 0,-3.2 -2.6,-5.8 -5.8,-5.8 -1.63,0 -3.1,0.68 -4.16,1.77 -27.35,-13.41 -60.21,-19.71 -108.58,0.39 -0.23,-0.28 -0.49,-0.54 -0.77,-0.78 l 23.88,-40.41 c 1.29,0.47 2.62,0.47 3.91,-0.03 7.04,10.01 8.62,16.84 9.27,25.99 0.07,0.92 0.85,1.62 1.87,1.62 v 0 c 0.47,-0.03 0.89,-0.25 1.2,-0.6 0.31,-0.35 0.46,-0.8 0.42,-1.27 -0.69,-9.71 -2.38,-17.17 -9.99,-27.9 0.32,-0.47 0.57,-0.97 0.74,-1.51 h 85.03 c 0.7,2.23 2.68,3.82 5,4.02 4.26,19.19 6.47,33.13 7.36,46.56 0.06,0.93 0.84,1.63 1.86,1.63 v 0 c 0.47,-0.03 0.89,-0.24 1.2,-0.59 0.31,-0.35 0.46,-0.8 0.43,-1.27 -0.8,-12.05 -2.71,-24.82 -6.13,-41.06 l 19.92,34.89 c 0.46,0.81 1.58,1.12 2.39,0.65 0.84,-0.48 1.13,-1.55 0.65,-2.39 l -22.98,-40.24 z m -12.53,44.03 c 1.27,0 2.3,1.03 2.3,2.3 0,1.27 -1.03,2.3 -2.3,2.3 -1.27,0 -2.3,-1.03 -2.3,-2.3 0,-1.27 1.03,-2.3 2.3,-2.3 z m -117.21,4.59 c -1.27,0 -2.3,-1.03 -2.3,-2.3 0,-1.27 1.03,-2.3 2.3,-2.3 1.27,0 2.3,1.03 2.3,2.3 0,1.27 -1.03,2.3 -2.3,2.3 z m 29.51,-50.27 c -1.27,0 -2.3,-1.03 -2.3,-2.2999999 0,-1.27 1.03,-2.3 2.3,-2.3 1.27,0 2.3,1.03 2.3,2.3 0,1.2699999 -1.03,2.2999999 -2.3,2.2999999 z m 96.01,0 c -1.27,0 -2.3,-1.03 -2.3,-2.2999999 0,-1.27 1.03,-2.3 2.3,-2.3 1.27,0 2.3,1.03 2.3,2.3 0,1.2699999 -1.03,2.2999999 -2.3,2.2999999 z"
     id="path25"
     style="fill:url(#Neues_Verlaufsfeld_1-7)" />
</svg>
