<?xml version="1.0" encoding="UTF-8"?><svg id="Ebene_1" xmlns="http://www.w3.org/2000/svg" viewBox="0 0 489.08 283.3"><defs><style>.cls-1{fill:#1d1d1b;}</style></defs><path class="cls-1" d="m338.43,131.76c-.46,0-.91.05-1.34.14l-41.79-73.06c1-1.17,1.61-2.68,1.61-4.34,0-3.67-2.99-6.66-6.66-6.66-3.07,0-5.65,2.09-6.42,4.91h-82.45c-.77-2.83-3.36-4.91-6.42-4.91-3.67,0-6.66,2.99-6.66,6.66,0,1.78.72,3.48,1.95,4.71l-41.61,72.74c-.51-.12-1.04-.2-1.58-.2-3.67,0-6.66,2.99-6.66,6.66s2.99,6.66,6.66,6.66c.59,0,1.17-.09,1.72-.23l41.34,72.27c-1.36,1.22-2.22,2.98-2.22,4.95,0,3.67,2.99,6.66,6.66,6.66,3.07,0,5.65-2.09,6.42-4.91h83.06c.77,2.83,3.35,4.91,6.42,4.91,3.67,0,6.67-2.99,6.67-6.66,0-1.73-.67-3.3-1.75-4.48l41.57-72.68c.48.11.97.17,1.48.17,3.67,0,6.67-2.99,6.67-6.66s-2.99-6.66-6.67-6.66Zm-48.18-80.42c1.75,0,3.16,1.42,3.16,3.16s-1.42,3.17-3.16,3.17-3.16-1.42-3.16-3.17,1.42-3.16,3.16-3.16Zm-95.29,0c1.75,0,3.17,1.42,3.17,3.16s-1.42,3.17-3.17,3.17c-.55,0-1.09-.14-1.57-.42,0,0,0,0,0,0,0,0,0,0,0,0-.98-.56-1.59-1.61-1.59-2.75,0-1.75,1.42-3.16,3.16-3.16Zm-51.06,87.08c0-1.75,1.42-3.16,3.16-3.16s3.16,1.42,3.16,3.16-1.42,3.16-3.16,3.16-3.16-1.42-3.16-3.16Zm50.67,86.82c-1.75,0-3.16-1.42-3.16-3.16s1.42-3.16,3.16-3.16,3.17,1.42,3.17,3.16-1.42,3.16-3.17,3.16Zm95.91,0c-1.75,0-3.16-1.42-3.16-3.16s1.42-3.16,3.16-3.16c.58,0,1.12.17,1.59.44.07.06.14.11.22.16.02.01.04.02.07.03.78.58,1.3,1.5,1.3,2.54,0,1.75-1.42,3.16-3.17,3.16Zm1.96-9.53c-.62-.19-1.28-.3-1.96-.3-2.07,0-3.93.95-5.15,2.44-25.34-11.62-57.64-36.76-68.83-61.46-4.9-10.81-5.21-26.35-5.55-42.81-.04-2.23-.09-4.47-.15-6.7-.02-.95-.8-1.71-1.75-1.71-.02,0-.03,0-.05,0-.97.02-1.73.83-1.7,1.79.06,2.23.1,4.46.15,6.68.34,16.82.67,32.71,5.86,44.18,11.31,24.98,43.35,50.3,69.04,62.49h-76.51c15.34-4.87,28.72-9.18,41.34-14.97.88-.4,1.26-1.44.86-2.32-.4-.88-1.44-1.26-2.32-.86-12.89,5.91-26.68,10.29-42.64,15.35l-2.92.93c-1.19-1.83-3.25-3.05-5.59-3.05-.45,0-.89.05-1.32.13l-41.44-72.45c1.19-1.2,1.92-2.85,1.92-4.67,0-1.02-.24-1.98-.65-2.84,49.22-41.6,78.02-50.9,139.56-20.85.87.43,1.92.06,2.34-.8.42-.87.06-1.92-.8-2.34-31.66-15.46-54.31-20.47-75.76-16.77-19.42,3.35-38.49,13.86-65.08,35.98l39.95-69.85c.54.14,1.11.22,1.67.22,1.01,0,1.97-.23,2.83-.64,5.58,7.91,8.53,17.81,9.5,31.83.06.92.83,1.63,1.74,1.63.04,0,.08,0,.12,0,.96-.07,1.69-.9,1.62-1.87-1.03-14.84-4.23-25.37-10.32-33.86.41-.6.72-1.28.92-2h82.45c.77,2.83,3.35,4.92,6.42,4.92.1,0,.2-.01.3-.02,21.68,88.52-5.34,118.21-31.38,134.16-.82.5-1.08,1.58-.58,2.41.33.54.91.84,1.49.84.31,0,.63-.08.91-.26,39.07-23.94,49.76-64.96,34.26-132.47l38.7,67.66c-.16.14-.31.29-.45.45-8.98-5.86-17.26-10.82-25.27-15.12-.85-.46-1.91-.14-2.37.71s-.14,1.91.71,2.37c8.01,4.3,16.31,9.27,25.32,15.16-.09.44-.14.89-.14,1.36,0,1.91.81,3.63,2.1,4.84l-41.43,72.44Zm46-74.12c-1.75,0-3.16-1.42-3.16-3.16s1.42-3.16,3.16-3.16,3.17,1.42,3.17,3.16-1.42,3.16-3.17,3.16Z"/></svg>